<?xml version="1.0" encoding="utf-8"?>
<!-- Generator: Adobe Illustrator 21.0.0, SVG Export Plug-In . SVG Version: 6.00 Build 0)  -->
<svg version="1.1" id="图层_1" xmlns="http://www.w3.org/2000/svg" xmlns:xlink="http://www.w3.org/1999/xlink" x="0px" y="0px"
	 viewBox="0 0 200 200" style="enable-background:new 0 0 200 200;" xml:space="preserve">
<style type="text/css">
	.st0{fill:#8C8A88;}
	.st1{fill:#FFFFFF;}
</style>
<path class="st0" d="M99.4,0.5c-47.3,0-85.6,38.4-85.6,85.6c0,31.5,28.5,69.7,85.6,114.2c57.1-44.6,85.6-82.7,85.6-114.2
	C185,38.9,146.7,0.5,99.4,0.5z"/>
<g>
	<path class="st1" d="M99.4,162c-41.5,0-75.2-33.7-75.2-75.2s33.7-75.2,75.2-75.2s75.2,33.7,75.2,75.2S140.9,162,99.4,162z
		 M99.4,14.6c-39.8,0-72.2,32.4-72.2,72.2S59.6,159,99.4,159s72.2-32.4,72.2-72.2S139.2,14.6,99.4,14.6z"/>
</g>
<g>
	<path class="st1" d="M71.7,144.7l27-107.9h26.5L98.3,144.7H71.7z"/>
	<path class="st1" d="M87,30h44v18.8H87C87,48.9,87,30,87,30z"/>
	<path class="st1" d="M67.8,125.8h44v18.8h-44V125.8z"/>
</g>
</svg>
