<?xml version="1.0" encoding="utf-8"?>
<!-- Generator: Adobe Illustrator 21.0.0, SVG Export Plug-In . SVG Version: 6.00 Build 0)  -->
<svg version="1.1" id="图层_1" xmlns="http://www.w3.org/2000/svg" xmlns:xlink="http://www.w3.org/1999/xlink" x="0px" y="0px"
	 viewBox="0 0 200 200" style="enable-background:new 0 0 200 200;" xml:space="preserve">
<style type="text/css">
	.st0{fill:#F4B647;}
	.st1{fill:#FFFFFF;}
</style>
<path class="st0" d="M96.6,0.5C49.3,0.5,11,38.9,11,86.1c0,31.5,28.5,69.7,85.6,114.2c57.1-44.6,85.6-82.7,85.6-114.2
	C182.2,38.9,143.9,0.5,96.6,0.5zM96.6,162c-41.5,0-75.2-33.7-75.2-75.2s33.7-75.2,75.2-75.2s75.2,33.7,75.2,75.2S138.1,162,96.6,162z
		 M96.6,14.6c-39.8,0-72.2,32.4-72.2,72.2S56.8,159,96.6,159s72.2-32.4,72.2-72.2S136.4,14.6,96.6,14.6zM62.3,82.6c12.7,0,22.9,10.2,22.9,22.9s-10.2,22.9-22.9,22.9s-22.9-10.2-22.9-22.9S49.6,82.6,62.3,82.6
	 M116.7,116.9c7.9,0,14.3,6.4,14.3,14.3s-6.4,14.3-14.3,14.3s-14.3-6.4-14.3-14.3S108.8,116.9,116.7,116.9 M119.5,31
	c19,0,34.3,15.4,34.3,34.3c0,19-15.4,34.3-34.3,34.3c-19,0-34.3-15.4-34.3-34.3C85.2,46.4,100.6,31,119.5,31z"/>
<g></g>
</svg>
