<?xml version="1.0" encoding="utf-8"?>
<!-- Generator: Adobe Illustrator 21.0.0, SVG Export Plug-In . SVG Version: 6.00 Build 0)  -->
<svg version="1.1" id="图层_1" xmlns="http://www.w3.org/2000/svg" xmlns:xlink="http://www.w3.org/1999/xlink" x="0px" y="0px"
	 viewBox="0 0 200 200" style="enable-background:new 0 0 200 200;" xml:space="preserve">
<style type="text/css">
	.st0{fill:#8C8A88;}
	.st1{fill:#FFFFFF;}
</style>
<path class="st0" d="M98.5,0.5c-47.3,0-85.6,38.4-85.6,85.6c0,31.5,28.5,69.7,85.6,114.2c57.1-44.6,85.6-82.7,85.6-114.2
	C184.1,38.9,145.8,0.5,98.5,0.5z"/>
<g>
	<path class="st1" d="M98.5,162c-41.5,0-75.2-33.7-75.2-75.2S57,11.6,98.5,11.6s75.2,33.7,75.2,75.2S140,162,98.5,162z M98.5,14.6
		c-39.8,0-72.2,32.4-72.2,72.2S58.7,159,98.5,159s72.2-32.4,72.2-72.2S138.3,14.6,98.5,14.6z"/>
</g>
<path class="st1" d="M91.6,143.7c2.9,8.6,8.3,8.9,12.1,0.7l43.5-93.3c3.8-8.2,0.3-11.8-7.9-7.9L46.1,86.7c-8.2,3.8-7.9,9.3,0.7,12.1
	l33.6,11.2L91.6,143.7z"/>
</svg>
