<?xml version="1.0" encoding="utf-8"?>
<!-- Generator: Adobe Illustrator 21.0.0, SVG Export Plug-In . SVG Version: 6.00 Build 0)  -->
<svg version="1.1" id="图层_1" xmlns="http://www.w3.org/2000/svg" xmlns:xlink="http://www.w3.org/1999/xlink" x="0px" y="0px"
	 viewBox="0 0 200 200" style="enable-background:new 0 0 200 200;" xml:space="preserve">
<style type="text/css">
	.st0{fill:#4694FD;}
	.st1{fill:#FFFFFF;}
</style>
<path class="st0" d="M98.9,0.5c-47.3,0-85.6,38.4-85.6,85.6c0,31.5,28.5,69.7,85.6,114.2c57.1-44.6,85.6-82.7,85.6-114.2
	C184.5,38.9,146.2,0.5,98.9,0.5z"/>
<g>
	<path class="st1" d="M98.9,162c-41.5,0-75.2-33.7-75.2-75.2s33.7-75.2,75.2-75.2s75.2,33.7,75.2,75.2S140.4,162,98.9,162z
		 M98.9,14.6c-39.8,0-72.2,32.4-72.2,72.2S59.1,159,98.9,159s72.2-32.4,72.2-72.2S138.7,14.6,98.9,14.6z"/>
</g>
<path class="st1" d="M116.2,108.8c2.6-2,5.2-2.6,8.5-2.6c3.9,0,7.2,1.3,10.4,3.3c0.7,0,1.3,0.7,1.3,1.3c2,1.3,2.6,2,4.6,2
	c2.6,0.7,5.9-0.7,10.4-3.9l8.5,10.4c-7.2,5.9-14.3,7.8-20.8,6.5c-3.3-0.7-5.9-2-9.1-3.9c0,0-1.3-0.7-1.3-1.3
	c-2.6-1.3-2.6-1.3-3.9-1.3c-0.7,0-1.3,0-2.6,1.3h-0.7c-2,1.3-3.3,2.6-5.2,3.3v8.5h-39V125c-1.3,0.7-2.6,0.7-4.6,0.7
	c-3.9,0-7.2-1.3-10.4-3.3c-0.7,0-1.3-0.7-1.3-1.3c-2-1.3-2.6-2-4.6-2c-2.6-0.7-5.9,0.7-10.4,3.9l-7.8-10.4
	c7.2-5.9,14.3-7.8,20.8-6.5c3.3,0.7,5.9,2,9.1,3.9c0,0,1.3,0.7,1.3,1.3c2,1.3,2.6,1.3,3.3,1.3c0.7,0,1.3,0,2.6-1.3h0.7
	c0.7,0,0.7-0.7,1.3-0.7V99.6h-4.6c-3.9,0-7.2-1.3-10.4-3.3c-0.7,0-1.3-0.7-1.3-1.3c-2-1.3-2.6-2-4.6-2c-2.6-0.7-5.9,0.7-10.4,3.9
	l-7.8-10.4c7.2-5.9,14.3-7.8,20.8-6.5c3.3,0.7,5.9,2,9.1,3.9c0,0,1.3,0.7,1.3,1.3c2,1.3,2.6,1.3,3.3,1.3c0.7,0,1.3,0,2.6-1.3h0.7
	c0.7,0,0.7-0.7,1.3-0.7V73c-1.3,0.7-2.6,0.7-4.6,0.7c-3.9,0-7.2-1.3-10.4-3.3c-0.7,0-1.3-0.7-1.3-1.3c-2-1.3-2.6-2-4.6-2
	c-2.6-0.7-5.9,0.7-9.8,3.9l-8.5-10.4c7.2-5.9,14.3-7.8,20.8-6.5c3.3,0.7,5.9,2,9.1,3.9c0,0,1.3,0.7,1.3,1.3c2,1.3,2.6,1.3,3.3,1.3
	c0.7,0,1.3,0,2.6-1.3h0.7c0.7,0,0.7-0.7,1.3-0.7V41.1h39v15.6c2.6-2,5.2-2.6,8.5-2.6c3.9,0,7.2,1.3,10.4,3.3c0.7,0,1.3,0.7,1.3,1.3
	c2,1.3,3.3,2,4.6,2c2.6,0.7,5.9-0.7,10.4-3.9l8.5,10.4c-7.2,5.9-14.3,7.8-20.8,6.5c-3.3-0.7-5.9-2-9.1-3.9c0,0-1.3-0.7-1.3-1.3
	c-2.6-1.3-2.6-1.3-3.9-1.3c-0.7,0-1.3,0-2.6,1.3h-0.7c-2,1.3-3.3,2.6-5.2,3.3v10.4c2.6-2,5.2-2.6,8.5-2.6c3.9,0,7.2,1.3,10.4,3.3
	c0.7,0,1.3,0.7,1.3,1.3c2,1.3,2.6,2,4.6,2c2.6,0.7,5.9-0.7,10.4-3.9l8.5,10.4c-7.2,5.9-14.3,7.8-20.8,6.5c-3.3-0.7-5.9-2-9.1-3.9
	c0,0-1.3-0.7-1.3-1.3c-2.6-0.7-2.6-0.7-3.9-0.7c-0.7,0-1.3,0-2.6,1.3h-0.7c-2,1.3-3.3,2.6-5.2,3.3V108.8z M103.2,54.1h-13v6.5h6.5
	v13h-6.5v6.5h6.5v13h-6.5v6.5h6.5v13h-6.5v6.5h13V54.1z"/>
</svg>
