<?xml version="1.0" encoding="utf-8"?>
<!-- Generator: Adobe Illustrator 21.0.0, SVG Export Plug-In . SVG Version: 6.00 Build 0)  -->
<svg version="1.1" id="图层_1" xmlns="http://www.w3.org/2000/svg" xmlns:xlink="http://www.w3.org/1999/xlink" x="0px" y="0px"
	 viewBox="0 0 200 200" style="enable-background:new 0 0 200 200;" xml:space="preserve">
<style type="text/css">
	.st0{fill:#4694FD;}
	.st1{fill:#FFFFFF;}
</style>
<path class="st0" d="M98.5,0.5c-47.3,0-85.6,38.4-85.6,85.6c0,31.5,28.5,69.7,85.6,114.2c57.1-44.6,85.6-82.7,85.6-114.2
	C184.1,38.9,145.8,0.5,98.5,0.5z"/>
<g>
	<path class="st1" d="M98.5,162c-41.5,0-75.2-33.7-75.2-75.2S57,11.6,98.5,11.6s75.2,33.7,75.2,75.2S140,162,98.5,162z M98.5,14.6
		c-39.8,0-72.2,32.4-72.2,72.2S58.7,159,98.5,159s72.2-32.4,72.2-72.2S138.3,14.6,98.5,14.6z"/>
</g>
<path class="st1" d="M98.4,59.1c7.5,0,14.2,3,19.2,7.9c4.9,5,7.9,11.7,7.9,19.2s-3,14.3-7.9,19.2l0,0h-0.1c-5,4.9-11.7,7.9-19.1,7.9
	s-14.2-3.1-19.2-8l0,0c-4.9-4.9-7.9-11.7-7.9-19.2c0-7.4,3.1-14.2,7.9-19.2C84.2,62.2,91,59.1,98.4,59.1z M71,66.7L43.9,51
	c-1.5-0.9-3.5-0.4-4.4,1.2c-0.9,1.6-0.4,3.5,1.1,4.4l27.1,15.7c1.5,0.9,3.5,0.3,4.4-1.2C73,69.5,72.5,67.6,71,66.7z M84.5,55.5
	l-8.1-14c-0.9-1.6-2.8-2.1-4.5-1.2c-1.5,0.9-2.1,2.8-1.2,4.4l8.1,14c0.8,1.5,2.8,2.1,4.4,1.2C84.8,59.1,85.3,57.1,84.5,55.5z
	 M67.7,100.3L40.6,116c-1.5,0.9-2.1,2.8-1.2,4.4c0.8,1.6,2.8,2.1,4.4,1.2L71,105.9c1.5-0.9,2.1-2.9,1.2-4.4
	C71.3,100,69.3,99.4,67.7,100.3z M64.8,83c1.8,0,3.3,1.5,3.3,3.3s-1.5,3.3-3.3,3.3H48.7c-1.8,0-3.3-1.5-3.3-3.3s1.5-3.3,3.3-3.3
	H64.8z M95.2,119.9c0-1.8,1.5-3.3,3.2-3.3c1.8,0,3.3,1.4,3.3,3.3v31.3c0,1.8-1.5,3.2-3.3,3.2s-3.2-1.5-3.2-3.2V119.9z M78.9,113.8
	l-8.1,14c-0.9,1.6-0.4,3.6,1.2,4.5c1.5,0.9,3.5,0.3,4.5-1.2l8.1-14c0.9-1.5,0.3-3.5-1.2-4.4C81.7,111.7,79.8,112.2,78.9,113.8
	L78.9,113.8z M126,105.9l27,15.6c1.6,0.9,3.5,0.5,4.5-1.1c0.9-1.6,0.3-3.5-1.2-4.4l-27.1-15.7c-1.5-0.9-3.5-0.3-4.4,1.2
	C123.9,103,124.4,105,126,105.9L126,105.9z M112.5,117l8.1,14c0.9,1.5,2.8,2.1,4.4,1.2c1.6-0.9,2.2-2.8,1.2-4.4l-8.1-14
	c-0.9-1.5-2.9-2.1-4.5-1.2C112.2,113.5,111.6,115.5,112.5,117L112.5,117z M129.2,72.3l27.1-15.7c1.5-0.9,2.1-2.8,1.2-4.4
	c-0.9-1.6-2.8-2.1-4.4-1.2L126,66.7c-1.6,0.9-2.1,2.8-1.2,4.5C125.7,72.6,127.7,73.2,129.2,72.3L129.2,72.3z M132.2,89.5
	c-1.8,0-3.3-1.5-3.3-3.3s1.5-3.3,3.3-3.3h16.1c1.8,0,3.2,1.5,3.2,3.3s-1.5,3.3-3.2,3.3H132.2z M101.7,52.7c0,1.8-1.5,3.2-3.3,3.2
	s-3.3-1.5-3.3-3.2V21.4c0-1.8,1.5-3.3,3.3-3.3s3.3,1.5,3.3,3.3V52.7z M118.1,58.8l8.1-14c0.9-1.6,0.3-3.5-1.2-4.4
	c-1.6-0.9-3.5-0.4-4.5,1.2l-8.1,14c-0.9,1.5-0.3,3.5,1.2,4.5C115.2,60.8,117.2,60.3,118.1,58.8z"/>
</svg>
